SplineFontDB: 3.0
FontName: Klein-Regular
FullName: Klein
FamilyName: Klein
Weight: Regular
Copyright: Copyright (c) 2016, mrkline
UComments: "2016-1-15: Created with FontForge (http://fontforge.org)"
Version: 0.1
ItalicAngle: 0
UnderlinePosition: -100
UnderlineWidth: 50
Ascent: 800
Descent: 200
InvalidEm: 0
LayerCount: 2
Layer: 0 0 "Back" 1
Layer: 1 0 "Fore" 0
XUID: [1021 77 -1879282181 14856649]
FSType: 0
OS2Version: 0
OS2_WeightWidthSlopeOnly: 0
OS2_UseTypoMetrics: 1
CreationTime: 1452917949
ModificationTime: 1453018484
PfmFamily: 17
TTFWeight: 400
TTFWidth: 5
LineGap: 90
VLineGap: 0
OS2TypoAscent: 0
OS2TypoAOffset: 1
OS2TypoDescent: 0
OS2TypoDOffset: 1
OS2TypoLinegap: 90
OS2WinAscent: 0
OS2WinAOffset: 1
OS2WinDescent: 0
OS2WinDOffset: 1
HheadAscent: 0
HheadAOffset: 1
HheadDescent: 0
HheadDOffset: 1
OS2Vendor: 'PfEd'
MarkAttachClasses: 1
DEI: 91125

StartChar: l
Encoding: 108 108 0
Width: 300
Flags: HW
LayerCount: 2
Back
SplineSet
260 19 m 1
 260 0 l 1
 29 0 l 1
 29 19 l 1
 99 34 l 1
 99 742 l 1
 29 768 l 5
 29 781 l 5
 182 830 l 5
 191 830 l 1
 191 34 l 1
 260 19 l 1
EndSplineSet
Fore
SplineSet
99 34 m 1
 99 741 l 1
 24 768 l 1
 24 782 l 1
 117 800 144 811 182 830 c 5
 191 830 l 1
 191 34 l 1
 260 19 l 1
 260 0 l 1
 29 0 l 1
 29 19 l 1
 99 34 l 1
EndSplineSet
Validated: 1
EndChar

StartChar: o
Encoding: 111 111 1
Width: 616
Flags: HW
LayerCount: 2
Back
SplineSet
308 540 m 4
 346 540 381 533 413 519 c 4
 445 505 472.666992188 485.833007812 496 461.5 c 4
 519.333007812 437.166992188 537.666015625 408.166992188 550.999023438 374.5 c 4
 564.33203125 340.833007812 570.999023438 304.333007812 570.999023438 265 c 4
 570.999023438 225.666992188 564.33203125 189.166992188 550.999023438 155.5 c 4
 537.666015625 121.833007812 519.333007812 92.666015625 496 67.9990234375 c 4
 472.666992188 43.33203125 445 24.1650390625 413 10.498046875 c 4
 381 -3.1689453125 346 -10.001953125 308 -10.001953125 c 4
 270 -10.001953125 235 -3.1689453125 203 10.498046875 c 4
 171 24.1650390625 143.333007812 43.33203125 120 67.9990234375 c 4
 96.6669921875 92.666015625 78.333984375 121.833007812 65.0009765625 155.5 c 4
 51.66796875 189.166992188 45.0009765625 225.666992188 45.0009765625 265 c 4
 45.0009765625 304.333007812 51.66796875 340.833007812 65.0009765625 374.5 c 4
 78.333984375 408.166992188 96.6669921875 437.166992188 120 461.5 c 4
 143.333007812 485.833007812 171 505 203 519 c 4
 235 533 270 540 308 540 c 4
151 265 m 4
 151 192.333007812 164.83203125 135.83203125 192.499023438 95.4990234375 c 4
 220.166015625 55.166015625 258.333007812 34.9990234375 307 34.9990234375 c 4
 356.333007812 34.9990234375 395 55.33203125 423 95.9990234375 c 4
 451 136.666015625 465 193.333007812 465 266 c 4
 465 338 451.166992188 394.166992188 423.5 434.5 c 4
 395.833007812 474.833007812 357.333007812 495 308 495 c 4
 258.666992188 495 220.166992188 474.833007812 192.5 434.5 c 4
 164.833007812 394.166992188 151 337.666992188 151 265 c 4
EndSplineSet
Fore
SplineSet
151 265 m 3
 151 147 222 52 308 52 c 3
 394 52 465 147 465 265 c 3
 465 383 394 478 308 478 c 3
 222 478 151 383 151 265 c 3
46 265 m 3
 46 417 163 540 308 540 c 3
 453 540 571 417 571 265 c 3
 571 113 453 -12 308 -12 c 3
 163 -12 46 113 46 265 c 3
EndSplineSet
Validated: 1
EndChar

StartChar: x
Encoding: 120 120 2
Width: 579
Flags: HW
LayerCount: 2
Back
SplineSet
316 334 m 1
 395.000976562 437.997070312 l 2
 403.000976562 448.6640625 408.000976562 456.331054688 410.000976562 460.998046875 c 0
 412.000976562 465.665039062 413.000976562 470.665039062 413.000976562 475.998046875 c 0
 413.000976562 483.331054688 408.500976562 489.998046875 399.500976562 495.998046875 c 0
 390.500976562 501.998046875 375.66796875 506.665039062 355.000976562 509.998046875 c 1
 355.000976562 529.998046875 l 1
 561.000976562 529.998046875 l 1
 561.000976562 509.998046875 l 1
 545.000976562 506.665039062 531.500976562 503.33203125 520.500976562 499.999023438 c 0
 509.500976562 496.666015625 499.66796875 492.499023438 491.000976562 487.499023438 c 0
 482.333984375 482.499023438 474.333984375 476.33203125 467.000976562 468.999023438 c 0
 459.66796875 461.666015625 451.66796875 452.666015625 443.000976562 441.999023438 c 2
 336.000976562 302.999023438 l 1
 492.000976562 62.9990234375 l 2
 501.333984375 48.9990234375 511.666992188 38.9990234375 523 32.9990234375 c 0
 534.333007812 26.9990234375 552.666015625 22.666015625 577.999023438 19.9990234375 c 1
 577.999023438 -0.0009765625 l 1
 328.999023438 -0.0009765625 l 1
 328.999023438 19.9990234375 l 1
 352.999023438 22.666015625 368.83203125 25.166015625 376.499023438 27.4990234375 c 0
 384.166015625 29.83203125 387.999023438 34.33203125 387.999023438 40.9990234375 c 0
 387.999023438 44.33203125 386.999023438 48.1650390625 384.999023438 52.498046875 c 0
 382.999023438 56.8310546875 378.666015625 63.998046875 371.999023438 73.998046875 c 2
 273.999023438 223.998046875 l 1
 173.999023438 91.998046875 l 2
 166.666015625 82.6650390625 161.833007812 75.33203125 159.5 69.9990234375 c 0
 157.166992188 64.666015625 156 59.9990234375 156 55.9990234375 c 0
 156 46.666015625 161 39.166015625 171 33.4990234375 c 0
 181 27.83203125 197.666992188 23.33203125 221 19.9990234375 c 1
 221 -0.0009765625 l 1
 0 -0.0009765625 l 1
 0 19.9990234375 l 1
 33.3330078125 24.666015625 59.5 32.166015625 78.5 42.4990234375 c 0
 97.5 52.83203125 115 68.9990234375 131 90.9990234375 c 2
 253 256.999023438 l 1
 117 466.999023438 l 2
 112.333007812 473.666015625 107.5 479.333007812 102.5 484 c 0
 97.5 488.666992188 91.5 492.666992188 84.5 496 c 0
 77.5 499.333007812 69.1669921875 502 59.5 504 c 0
 49.8330078125 506 38 508 24 510 c 1
 24 530 l 1
 126 530 l 4
 275 530 l 1
 275 510 l 1
 255 508.666992188 241.166992188 506.166992188 233.5 502.5 c 0
 225.833007812 498.833007812 222 494.333007812 222 489 c 0
 222 481.666992188 227 470.666992188 237 456 c 2
 316 334 l 1
EndSplineSet
Fore
SplineSet
355 510 m 1
 355 530 l 1
 561 530 l 1
 561 510 l 5
 516 498 511 496 455 422 c 2
 349 283 l 1
 492 63 l 2
 512 32 530 25 578 20 c 1
 578 -0 l 1
 329 -0 l 1
 329 20 l 1
 353 23 368 25 376 27 c 0
 384 29 388 34 388 41 c 0
 388 54 381 60 372 74 c 2
 287 204 l 1
 187 72 l 2
 179 61 175 53 175 46 c 0
 175 30 196 24 221 20 c 1
 221 -0 l 1
 0 -0 l 1
 -0 20 l 1
 68 29 89 60 122 105 c 2
 244 271 l 1
 117 467 l 1
 96 496 69 504 24 510 c 1
 24 530 l 1
 275 530 l 1
 275 510 l 1
 251 508 222 506 222 489 c 0
 222 482 227 471 237 456 c 2
 307 348 l 1
 386 452 l 2
 396 465 406 476 406 485 c 0
 406 495 393 503 355 510 c 1
EndSplineSet
Validated: 1
EndChar

StartChar: y
Encoding: 121 121 3
Width: 350
Flags: HW
LayerCount: 2
Back
SplineSet
325 144 m 1
 418.999023438 431.002929688 l 2
 423.666015625 444.3359375 425.999023438 456.3359375 425.999023438 467.002929688 c 0
 425.999023438 479.002929688 420.166015625 488.8359375 408.499023438 496.502929688 c 0
 396.83203125 504.169921875 376.999023438 508.669921875 348.999023438 510.002929688 c 1
 348.999023438 530.002929688 l 1
 573.999023438 530.002929688 l 1
 573.999023438 510.002929688 l 1
 554.666015625 506.669921875 538.833007812 503.169921875 526.5 499.502929688 c 0
 514.166992188 495.8359375 504 491.168945312 496 485.501953125 c 0
 488 479.834960938 481.5 472.501953125 476.5 463.501953125 c 0
 471.5 454.501953125 466.666992188 443.334960938 462 430.001953125 c 2
 267 -140.998046875 l 2
 259.666992188 -162.331054688 252 -179.831054688 244 -193.498046875 c 0
 236 -207.165039062 228 -217.998046875 220 -225.998046875 c 0
 210 -237.331054688 197.666992188 -245.831054688 183 -251.498046875 c 0
 168.333007812 -257.165039062 152.333007812 -259.998046875 135 -259.998046875 c 0
 110.333007812 -259.998046875 90.5 -253.831054688 75.5 -241.498046875 c 0
 60.5 -229.165039062 53 -212.998046875 53 -192.998046875 c 0
 53 -177.665039062 58 -165.165039062 68 -155.498046875 c 0
 78 -145.831054688 91.6669921875 -140.998046875 109 -140.998046875 c 0
 122.333007812 -140.998046875 132.5 -144.498046875 139.5 -151.498046875 c 0
 146.5 -158.498046875 151.666992188 -170.331054688 155 -186.998046875 c 0
 156.333007812 -199.665039062 158.333007812 -207.83203125 161 -211.499023438 c 0
 163.666992188 -215.166015625 168.333984375 -216.999023438 175.000976562 -216.999023438 c 0
 186.333984375 -216.999023438 196.500976562 -210.666015625 205.500976562 -197.999023438 c 0
 214.500976562 -185.33203125 224.000976562 -163.999023438 234.000976562 -133.999023438 c 2
 275.000976562 -7.9990234375 l 1
 80.0009765625 470.000976562 l 2
 74.0009765625 482.66796875 65.66796875 492.000976562 55.0009765625 498.000976562 c 0
 44.333984375 504.000976562 29.0009765625 508.000976562 9.0009765625 510.000976562 c 1
 9.0009765625 530.000976562 l 1
 256.000976562 530.000976562 l 1
 256.000976562 510.000976562 l 1
 229.333984375 508.66796875 211.666992188 506.66796875 203 504.000976562 c 0
 194.333007812 501.333984375 190 496.666992188 190 490 c 0
 190 484 192.666992188 474 198 460 c 2
 320 144 l 1
 325 144 l 1
EndSplineSet
Fore
SplineSet
178 -253 m 3
 151 -253 133 -247 109 -234 c 0
 85 -221 65 -202 50 -179 c 1
 67 -166 l 1
 77 -179 88 -189 102 -196 c 0
 104 -197 107 -198 109 -199 c 0
 120 -204 132 -207 143 -207 c 0
 166 -207 186 -197 206 -141 c 2
 263 22 l 1
 80 470 l 1
 67 497 47 506 9 510 c 1
 9 530 l 1
 256 530 l 1
 256 510 l 1
 224 508 190 510 190 490 c 0
 190 484 193 474 198 460 c 2
 308 174 l 1
 313 174 l 1
 407 461 l 2
 409 468 411 474 411 480 c 0
 411 497 398 508 349 510 c 1
 349 530 l 1
 574 530 l 1
 574 510 l 1
 529 502 494 496 476 464 c 0
 471 455 467 443 462 430 c 2
 266 -144 l 2
 247 -199 232 -253 178 -253 c 3
EndSplineSet
Validated: 1
EndChar

StartChar: z
Encoding: 122 122 4
Width: 513
Flags: HW
LayerCount: 2
Fore
SplineSet
471 530 m 1
 471 503 l 1
 155 32 l 1
 387 32 l 1
 436 194 l 1
 457 191 l 1
 450 0 l 1
 39 0 l 1
 39 28 l 1
 351 498 l 1
 130 498 l 1
 80 331 l 1
 59 332 l 1
 71 530 l 1
 471 530 l 1
EndSplineSet
Validated: 1
EndChar

StartChar: i
Encoding: 105 105 5
Width: 300
Flags: HW
LayerCount: 2
Back
SplineSet
90 715 m 4
 90 733.666992188 95.8330078125 749.166992188 107.5 761.5 c 4
 119.166992188 773.833007812 134.666992188 780 154 780 c 4
 174 780 189.833007812 773.833007812 201.5 761.5 c 4
 213.166992188 749.166992188 219 733.666992188 219 715 c 4
 219 697.666992188 213.166992188 682.666992188 201.5 670 c 4
 189.833007812 657.333007812 174 651 154 651 c 4
 134.666992188 651 119.166992188 657.333007812 107.5 670 c 4
 95.8330078125 682.666992188 90 697.666992188 90 715 c 4
277 20 m 5
 277 0 l 5
 31 0 l 5
 31 20 l 5
 107 35 l 5
 107 451 l 5
 33 478 l 5
 33 492 l 5
 193 540 l 5
 202 540 l 5
 202 35 l 5
 277 20 l 5
EndSplineSet
Fore
SplineSet
191 540 m 1
 202 540 l 1
 202 35 l 1
 277 20 l 1
 277 0 l 1
 31 0 l 1
 31 20 l 1
 107 35 l 1
 107 451 l 1
 33 478 l 1
 33 492 l 1
 126 510 153 521 191 540 c 1
90 715 m 0
 90 734 96 750 108 762 c 0
 120 774 135 780 154 780 c 0
 174 780 190 774 202 762 c 0
 214 750 219 734 219 715 c 0
 219 698 214 683 202 670 c 0
 190 657 174 651 154 651 c 0
 135 651 120 657 108 670 c 0
 96 683 90 698 90 715 c 0
EndSplineSet
Validated: 1
EndChar

StartChar: t
Encoding: 116 116 6
Width: 335
Flags: HW
LayerCount: 2
Back
SplineSet
745 70 m 1
 709 23 663 0 604 0 c 0
 540 0 461 25 461 126 c 2
 461 461 l 1
 377 461 l 1
 377 494 l 1
 475 498 519 553 518 676 c 1
 556 676 l 1
 556 494 l 1
 699 494 l 1
 699 461 l 1
 556 461 l 1
 556 344 l 0
 556 172 l 2
 556 81 580 40 631 40 c 0
 661 40 684 53 718 92 c 1
 745 70 l 1
207 -10 m 0
 175 -10 149 -0.66796875 129 17.9990234375 c 0
 117 29.33203125 108.5 43.4990234375 103.5 60.4990234375 c 0
 98.5 77.4990234375 96 101.33203125 96 131.999023438 c 2
 96 494.999023438 l 1
 31 494.999023438 l 1
 29 510.999023438 l 1
 173 660.999023438 l 1
 191 658.999023438 l 1
 191 529.999023438 l 1
 334 529.999023438 l 1
 326 494.999023438 l 1
 191 494.999023438 l 1
 191 140.999023438 l 2
 191 116.33203125 191.666992188 98.9990234375 193 88.9990234375 c 0
 194.333007812 78.9990234375 196.666015625 70.9990234375 199.999023438 64.9990234375 c 0
 210.666015625 46.33203125 227.333007812 36.9990234375 250 36.9990234375 c 0
 263.333007812 36.9990234375 276.833007812 40.666015625 290.5 47.9990234375 c 0
 304.166992188 55.33203125 316 65.33203125 326 77.9990234375 c 1
 343 64.9990234375 l 1
 327.666992188 41.666015625 308 23.3330078125 284 10 c 0
 260 -3.3330078125 234.333007812 -10 207 -10 c 0
EndSplineSet
Fore
SplineSet
343 65 m 5
 317 25 269 -10 207 -10 c 4
 155 -10 117 17 104 60 c 0
 99 77 96 101 96 132 c 2
 96 495 l 1
 31 495 l 1
 31 530 l 1
 31 530 54 531 81 545 c 0
 105 558 132 582 149 628 c 0
 156 647 162 670 165 698 c 1
 193 700 l 1
 191 530 l 1
 303 530 l 1
 302 495 l 1
 191 495 l 1
 191 141 l 2
 191 114 191 80 200 65 c 0
 211 47 227 37 250 37 c 4
 282 37 310 58 326 78 c 5
 343 65 l 5
EndSplineSet
Validated: 1
EndChar

StartChar: s
Encoding: 115 115 7
Width: 435
Flags: HW
LayerCount: 2
Back
SplineSet
244 540 m 4
 266.666992188 540 288.836914062 538.499023438 310.50390625 535.499023438 c 4
 332.170898438 532.499023438 349.337890625 528.33203125 362.004882812 522.999023438 c 5
 362.004882812 383.999023438 l 5
 341.004882812 383.999023438 l 5
 331.004882812 467.999023438 292.004882812 509.999023438 224.004882812 509.999023438 c 4
 197.337890625 509.999023438 176.170898438 502.83203125 160.50390625 488.499023438 c 4
 144.836914062 474.166015625 137.00390625 454.333007812 137.00390625 429 c 4
 137.00390625 407 143.170898438 389.166992188 155.50390625 375.5 c 4
 167.836914062 361.833007812 183.169921875 350 201.502929688 340 c 4
 219.8359375 330 239.8359375 320.333007812 261.502929688 311 c 4
 283.169921875 301.666992188 303.169921875 290.5 321.502929688 277.5 c 4
 339.8359375 264.5 355.168945312 248.166992188 367.501953125 228.5 c 4
 379.834960938 208.833007812 386.001953125 183.333007812 386.001953125 152 c 4
 386.001953125 102 369.501953125 62.5 336.501953125 33.5 c 4
 303.501953125 4.5 258.668945312 -10 202.001953125 -10 c 4
 180.668945312 -10 157.168945312 -8 131.501953125 -4 c 4
 105.834960938 -0 83.3349609375 5.3330078125 64.001953125 12 c 5
 58.001953125 174 l 5
 82.001953125 174 l 5
 91.3349609375 71.3330078125 134.001953125 20 210.001953125 20 c 4
 240.001953125 20 264.001953125 28.3330078125 282.001953125 45 c 4
 300.001953125 61.6669921875 309.001953125 84 309.001953125 112 c 4
 309.001953125 135.333007812 302.834960938 154.333007812 290.501953125 169 c 4
 278.168945312 183.666992188 262.668945312 196.5 244.001953125 207.5 c 4
 225.334960938 218.5 205.16796875 228.833007812 183.500976562 238.5 c 4
 161.833984375 248.166992188 141.666992188 259.5 123 272.5 c 4
 104.333007812 285.5 88.8330078125 301.5 76.5 320.5 c 4
 64.1669921875 339.5 58 364 58 394 c 4
 58 440.666992188 74 476.666992188 106 502 c 4
 138 527.333007812 184 540 244 540 c 4
EndSplineSet
Fore
SplineSet
58 394 m 0
 58 496 115 540 223 540 c 0
 264 540 335 534 362 523 c 1
 362 384 l 1
 341 384 l 1
 331 468 292 510 224 510 c 0
 172 510 137 481 137 429 c 0
 137 381 169 358 202 340 c 0
 240 319 287 303 322 278 c 0
 359 252 386 215 386 152 c 0
 386 47 317 -10 210 -10 c 0
 165 -10 98 0 64 12 c 1
 58 174 l 1
 82 174 l 1
 91 71 134 20 210 20 c 0
 268 20 309 55 309 112 c 0
 309 162 277 188 244 208 c 0
 206 230 159 247 123 272 c 0
 87 297 58 333 58 394 c 0
EndSplineSet
Validated: 1
EndChar

StartChar: h
Encoding: 104 104 8
Width: 635
Flags: HW
LayerCount: 2
Back
SplineSet
276 20 m 1
 275.999023438 0.0009765625 l 1
 29.9990234375 0.0009765625 l 1
 29.9990234375 20.0009765625 l 1
 105.999023438 35.0009765625 l 1
 105.999023438 741.000976562 l 1
 31.9990234375 768.000976562 l 1
 31.9990234375 782.000976562 l 5
 190.999023438 830.000976562 l 5
 200.999023438 830.000976562 l 1
 200.999023438 457.000976562 l 1
 231.666015625 483.66796875 264.166015625 504.16796875 298.499023438 518.500976562 c 0
 332.83203125 532.833984375 366.999023438 540.000976562 400.999023438 540.000976562 c 0
 427.666015625 540.000976562 451.333007812 534.66796875 472 524.000976562 c 0
 492.666992188 513.333984375 507.666992188 498.666992188 517 480 c 0
 519.666992188 474.666992188 521.833984375 468.833984375 523.500976562 462.500976562 c 0
 525.16796875 456.16796875 526.500976562 447.66796875 527.500976562 437.000976562 c 0
 528.500976562 426.333984375 529.16796875 413.166992188 529.500976562 397.5 c 0
 529.833984375 381.833007812 530.000976562 362 530.000976562 338 c 2
 530.000976562 34 l 1
 605.000976562 20 l 1
 605.000976562 0 l 1
 360.000976562 0 l 1
 360.000976562 20 l 1
 435.000976562 34 l 1
 435.000976562 328 l 2
 435.000976562 356.666992188 434.16796875 379.5 432.500976562 396.5 c 0
 430.833984375 413.5 427.666992188 427.666992188 423 439 c 0
 410.333007812 469.666992188 384.333007812 485 345 485 c 0
 289 485 241 463.333007812 201 420 c 1
 201 35 l 1
 276 20 l 1
EndSplineSet
Fore
SplineSet
189 830 m 1
 201 830 l 1
 201 496 l 1
 251 540 318 540 401 540 c 0
 462 540 511 511 524 463 c 0
 530 441 530 416 530 389 c 2
 530 389 530 152 530 34 c 1
 605 20 l 1
 605 0 l 1
 360 0 l 1
 360 20 l 1
 435 34 l 1
 435 328 l 2
 435 417 430 485 345 485 c 0
 289 485 241 463 201 420 c 1
 201 35 l 1
 276 20 l 1
 276 0 l 1
 30 0 l 1
 30 20 l 1
 106 35 l 1
 106 741 l 1
 31 768 l 1
 31 782 l 1
 124 800 151 811 189 830 c 1
EndSplineSet
EndChar

StartChar: b
Encoding: 98 98 9
Width: 602
Flags: HW
LayerCount: 2
Back
SplineSet
292 -10 m 4
 240.666992188 -10 194.665039062 5.33203125 153.998046875 35.9990234375 c 5
 148.998046875 35.9990234375 l 5
 102.998046875 1.9990234375 l 5
 86.998046875 1.9990234375 l 5
 86.998046875 740.999023438 l 5
 13.998046875 767.999023438 l 5
 13.998046875 780.999023438 l 5
 172.998046875 829.999023438 l 5
 182.998046875 829.999023438 l 5
 182.998046875 471.999023438 l 5
 224.998046875 517.33203125 275.665039062 539.999023438 334.998046875 539.999023438 c 4
 367.665039062 539.999023438 397.498046875 533.83203125 424.498046875 521.499023438 c 4
 451.498046875 509.166015625 474.831054688 491.833007812 494.498046875 469.5 c 4
 514.165039062 447.166992188 529.33203125 420.5 539.999023438 389.5 c 4
 550.666015625 358.5 555.999023438 324.333007812 555.999023438 287 c 4
 555.999023438 245 549.33203125 205.833007812 535.999023438 169.5 c 4
 522.666015625 133.166992188 504.166015625 101.666992188 480.499023438 75 c 4
 456.83203125 48.3330078125 428.83203125 27.5 396.499023438 12.5 c 4
 364.166015625 -2.5 329.333007812 -10 292 -10 c 4
291.998046875 23.9990234375 m 4
 315.998046875 23.9990234375 337.666992188 29.6669921875 357 41 c 4
 376.333007812 52.3330078125 392.833007812 68.166015625 406.5 88.4990234375 c 4
 420.166992188 108.83203125 430.666992188 133.499023438 438 162.499023438 c 4
 445.333007812 191.499023438 449 223.666015625 449 258.999023438 c 4
 449 329.666015625 435.166992188 385.166015625 407.5 425.499023438 c 4
 379.833007812 465.83203125 341.666015625 485.999023438 292.999023438 485.999023438 c 4
 270.33203125 485.999023438 249.665039062 481.33203125 230.998046875 471.999023438 c 4
 212.331054688 462.666015625 196.331054688 449.999023438 182.998046875 433.999023438 c 5
 182.998046875 149.999023438 l 6
 182.998046875 111.999023438 192.831054688 81.4990234375 212.498046875 58.4990234375 c 4
 232.165039062 35.4990234375 258.665039062 23.9990234375 291.998046875 23.9990234375 c 4
EndSplineSet
Fore
SplineSet
87 741 m 1
 14 767 l 5
 14 781 l 5
 107 799 135 811 173 830 c 5
 183 830 l 1
 183 494 l 1
 225 539 276 540 335 540 c 0
 445 540 511 473 540 390 c 0
 551 359 556 324 556 287 c 0
 556 152 489 55 396 12 c 0
 364 -3 329 -10 292 -10 c 0
 241 -10 195 5 154 36 c 1
 149 36 l 1
 103 2 l 1
 87 2 l 1
 87 741 l 1
183 150 m 2
 183 78 222 53 291 53 c 0
 346 53 382 83 406 118 c 0
 434 159 449 190 449 259 c 0
 449 380 404 486 293 486 c 0
 243 486 207 463 183 434 c 1
 183 150 l 2
EndSplineSet
Validated: 1
EndChar

StartChar: v
Encoding: 118 118 10
Width: 566
Flags: HW
LayerCount: 2
Back
SplineSet
263 -10 m 5
 84.0009765625 467.002929688 l 6
 80.66796875 475.002929688 77.5009765625 481.502929688 74.5009765625 486.502929688 c 4
 71.5009765625 491.502929688 67.5009765625 495.669921875 62.5009765625 499.002929688 c 4
 57.5009765625 502.3359375 51.0009765625 504.668945312 43.0009765625 506.001953125 c 4
 35.0009765625 507.334960938 24.66796875 508.66796875 12.0009765625 510.000976562 c 5
 12.0009765625 530.000976562 l 5
 260.000976562 530.000976562 l 5
 260.000976562 510.000976562 l 5
 231.333984375 508.66796875 212.666992188 506.16796875 204 502.500976562 c 4
 195.333007812 498.833984375 191 493.333984375 191 486.000976562 c 4
 191 478.000976562 193 468.000976562 197 456.000976562 c 6
 312 124.000976562 l 5
 316 124.000976562 l 5
 424 434.000976562 l 6
 430 452.000976562 433 465.333984375 433 474.000976562 c 4
 433 484.000976562 428.666992188 491.333984375 420 496.000976562 c 4
 411.333007812 500.66796875 392 505.334960938 362 510.001953125 c 5
 362 530.001953125 l 5
 565 530.001953125 l 5
 565 510.001953125 l 5
 546.333007812 506.668945312 531.333007812 503.168945312 520 499.501953125 c 4
 508.666992188 495.834960938 499.5 491.16796875 492.5 485.500976562 c 4
 485.5 479.833984375 479.833007812 472.666992188 475.5 464 c 4
 471.166992188 455.333007812 467 445 463 433 c 6
 307 -10 l 5
 263 -10 l 5
EndSplineSet
Fore
SplineSet
362 510 m 1
 362 530 l 1
 565 530 l 1
 565 510 l 1
 522 502 492 496 476 464 c 0
 472 455 467 445 463 433 c 2
 307 -10 l 1
 263 -10 l 1
 84 467 l 2
 75 488 68 502 43 506 c 0
 35 507 25 509 12 510 c 1
 12 530 l 1
 260 530 l 1
 260 510 l 1
 224 508 191 509 191 486 c 0
 191 478 193 468 197 456 c 2
 303 149 l 1
 307 149 l 1
 415 459 l 0
 416 463 417 466 417 470 c 0
 417 489 399 506 362 510 c 1
EndSplineSet
Validated: 1
EndChar

StartChar: u
Encoding: 117 117 11
Width: 598
Flags: HW
LayerCount: 2
Back
SplineSet
327 510 m 5
 326.999023438 530.001953125 l 5
 496.999023438 530.001953125 l 5
 496.999023438 75.001953125 l 5
 564.999023438 51.001953125 l 5
 564.999023438 39.001953125 l 5
 414.999023438 -9.998046875 l 5
 407.999023438 -9.998046875 l 5
 407.999023438 81.001953125 l 5
 403.999023438 82.001953125 l 5
 379.999023438 52.001953125 352.666015625 29.1689453125 321.999023438 13.501953125 c 4
 291.33203125 -2.1650390625 258.999023438 -9.998046875 224.999023438 -9.998046875 c 4
 197.666015625 -9.998046875 174.166015625 -4.6650390625 154.499023438 6.001953125 c 4
 134.83203125 16.6689453125 120.33203125 31.6689453125 110.999023438 51.001953125 c 4
 108.33203125 57.001953125 105.999023438 63.501953125 103.999023438 70.501953125 c 4
 101.999023438 77.501953125 100.499023438 86.1689453125 99.4990234375 96.501953125 c 4
 98.4990234375 106.834960938 97.83203125 119.66796875 97.4990234375 135.000976562 c 4
 97.166015625 150.333984375 96.9990234375 169.666992188 96.9990234375 193 c 6
 96.9990234375 495 l 5
 21.9990234375 510 l 5
 21.9990234375 530 l 5
 191.999023438 530 l 5
 191.999023438 193 l 6
 191.999023438 161.666992188 192.83203125 137.666992188 194.499023438 121 c 4
 196.166015625 104.333007812 199.333007812 91 204 81 c 4
 209.333007812 69.6669921875 218 60.6669921875 230 54 c 4
 242 47.3330078125 256.666992188 44 274 44 c 4
 297.333007812 44 320 50 342 62 c 4
 364 74 384 91.3330078125 402 114 c 5
 402 495 l 5
 327 510 l 5
EndSplineSet
Fore
SplineSet
415 -10 m 5
 408 -10 l 5
 408 60 l 1
 404 61 l 1
 364 11 306 -10 225 -10 c 0
 151 -10 106 29 99 97 c 0
 97 120 97 142 97 169 c 2
 97 495 l 1
 22 510 l 1
 22 530 l 1
 192 530 l 1
 192 193 l 2
 192 108 193 44 274 44 c 0
 331 44 373 99 402 135 c 1
 402 375 l 0
 402 495 l 1
 327 510 l 1
 327 530 l 1
 497 530 l 1
 497 75 l 1
 573 52 l 5
 573 38 l 5
 480 20 453 9 415 -10 c 5
EndSplineSet
Validated: 1
EndChar

StartChar: c
Encoding: 99 99 12
Width: 535
Flags: HW
LayerCount: 2
Back
SplineSet
290 -10 m 4
 254 -10 221.171875 -3.5 191.504882812 9.5 c 0
 161.837890625 22.5 136.170898438 40.8330078125 114.50390625 64.5 c 0
 92.8369140625 88.1669921875 76.00390625 116.5 64.00390625 149.5 c 0
 52.00390625 182.5 46.00390625 218.666992188 46.00390625 258 c 0
 46.00390625 299.333007812 52.50390625 337.166015625 65.50390625 371.499023438 c 0
 78.50390625 405.83203125 96.8369140625 435.499023438 120.50390625 460.499023438 c 0
 144.170898438 485.499023438 172.170898438 504.999023438 204.50390625 518.999023438 c 0
 236.836914062 532.999023438 272.669921875 539.999023438 312.002929688 539.999023438 c 0
 337.3359375 539.999023438 361.002929688 536.83203125 383.002929688 530.499023438 c 0
 405.002929688 524.166015625 424.002929688 515.666015625 440.002929688 504.999023438 c 0
 456.002929688 494.33203125 468.669921875 481.83203125 478.002929688 467.499023438 c 0
 487.3359375 453.166015625 492.002929688 437.999023438 492.002929688 421.999023438 c 0
 492.002929688 404.666015625 488.002929688 390.833007812 480.002929688 380.5 c 0
 472.002929688 370.166992188 460.669921875 365 446.002929688 365 c 0
 411.3359375 365 391.668945312 386 387.001953125 428 c 0
 385.001953125 444.666992188 382.168945312 458.166992188 378.501953125 468.5 c 0
 374.834960938 478.833007812 370.16796875 487 364.500976562 493 c 0
 358.833984375 499 352.000976562 503 344.000976562 505 c 0
 336.000976562 507 326.333984375 508 315.000976562 508 c 0
 261.66796875 508 220.500976562 487.166992188 191.500976562 445.5 c 0
 162.500976562 403.833007812 148.000976562 348 148.000976562 278 c 0
 148.000976562 209.333007812 163.000976562 156.333007812 193.000976562 119 c 0
 223.000976562 81.6669921875 265.333984375 63 320.000976562 63 c 4
 350.000976562 63 378.16796875 69 404.500976562 81 c 4
 430.833984375 93 453.000976562 111.333007812 471.000976562 136 c 6
 482.000976562 151 l 5
 501.000976562 141 l 5
 496.000976562 128 l 6
 478.66796875 84 452.16796875 50 416.500976562 26 c 4
 380.833984375 2 338.666992188 -10 290 -10 c 4
EndSplineSet
Fore
SplineSet
310 489 m 3
 192 489 148 402 148 278 c 0
 148 153 201 63 320 63 c 0
 389 63 440 93 471 136 c 2
 482 151 l 1
 501 141 l 1
 496 128 l 2
 465 48 396 -10 290 -10 c 0
 170 -10 97 60 64 150 c 0
 52 183 46 219 46 258 c 0
 46 390 112 479 205 519 c 0
 237 533 273 540 312 540 c 0
 374 540 438 525 484 456 c 5
 431 368 l 5
 419 390 406 489 310 489 c 3
EndSplineSet
EndChar

StartChar: e
Encoding: 101 101 13
Width: 616
Flags: HW
LayerCount: 2
Back
SplineSet
512 308 m 5
 146.998046875 307.999023438 l 5
 146.998046875 284.999023438 l 6
 146.998046875 211.666015625 161.498046875 156.333007812 190.498046875 119 c 4
 219.498046875 81.6669921875 262.665039062 63 319.998046875 63 c 4
 352.665039062 63 382.998046875 68.8330078125 410.998046875 80.5 c 4
 438.998046875 92.1669921875 461.665039062 108.666992188 478.998046875 130 c 6
 490.998046875 145 l 5
 507.998046875 135 l 5
 501.998046875 121 l 6
 484.665039062 80.3330078125 456.83203125 48.3330078125 418.499023438 25 c 4
 380.166015625 1.6669921875 336.333007812 -10 287 -10 c 4
 251 -10 218.333007812 -3.5 189 9.5 c 4
 159.666992188 22.5 134.5 40.6669921875 113.5 64 c 4
 92.5 87.3330078125 76.1669921875 115.333007812 64.5 148 c 4
 52.8330078125 180.666992188 47 217 47 257 c 4
 47 299 53.5 337.333007812 66.5 372 c 4
 79.5 406.666992188 97.6669921875 436.5 121 461.5 c 4
 144.333007812 486.5 172.333007812 505.833007812 205 519.5 c 4
 237.666992188 533.166992188 274 540 314 540 c 4
 380 540 430.333007812 521 465 483 c 4
 499.666992188 445 517.666992188 388.666992188 519 314 c 5
 512 308 l 5
304.998046875 508.999023438 m 4
 260.998046875 508.999023438 225.666992188 494.166015625 199 464.499023438 c 4
 172.333007812 434.83203125 155.666015625 391.999023438 148.999023438 335.999023438 c 5
 410.999023438 344.999023438 l 6
 412.33203125 348.999023438 413.165039062 354.83203125 413.498046875 362.499023438 c 4
 413.831054688 370.166015625 413.998046875 377.999023438 413.998046875 385.999023438 c 4
 413.998046875 467.999023438 377.665039062 508.999023438 304.998046875 508.999023438 c 4
EndSplineSet
Fore
SplineSet
148 231 m 2
 148 179 194 63 320 63 c 0
 389 63 447 90 479 130 c 2
 491 145 l 1
 508 135 l 1
 502 121 l 2
 470 45 392 -10 287 -10 c 0
 168 -10 96 59 64 148 c 0
 52 181 47 217 47 257 c 0
 47 389 111 481 205 520 c 0
 238 534 274 540 314 540 c 0
 453 540 516 417 519 276 c 1
 513 254 l 1
 148 254 l 1
 148 231 l 2
304 483 m 4
 204 483 158 400 146 303 c 1
 431 305 l 5
 429 428 383 483 304 483 c 4
EndSplineSet
Validated: 1
EndChar

StartChar: d
Encoding: 100 100 14
Width: 607
Flags: HW
LayerCount: 2
Back
SplineSet
254 -10 m 4
 224.666992188 -10 197.331054688 -3.333984375 171.998046875 9.9990234375 c 4
 146.665039062 23.33203125 124.665039062 41.83203125 105.998046875 65.4990234375 c 4
 87.3310546875 89.166015625 72.8310546875 117.333007812 62.498046875 150 c 4
 52.1650390625 182.666992188 46.998046875 218 46.998046875 256 c 4
 46.998046875 298 53.3310546875 336.333007812 65.998046875 371 c 4
 78.6650390625 405.666992188 96.6650390625 435.5 119.998046875 460.5 c 4
 143.331054688 485.5 170.998046875 505 202.998046875 519 c 4
 234.998046875 533 270.665039062 540 309.998046875 540 c 4
 346.665039062 540 382.665039062 535 417.998046875 525 c 5
 417.998046875 740 l 5
 344.998046875 768 l 5
 344.998046875 781 l 5
 501.998046875 830 l 5
 511.998046875 830 l 5
 511.998046875 78 l 5
 579.998046875 63 l 5
 579.998046875 52 l 5
 431.998046875 -10 l 5
 424.998046875 -10 l 5
 424.998046875 76 l 5
 420.998046875 78 l 5
 399.665039062 48 374.83203125 25.8330078125 346.499023438 11.5 c 4
 318.166015625 -2.8330078125 287.333007812 -10 254 -10 c 4
295.997070312 54.9990234375 m 4
 321.997070312 54.9990234375 345.999023438 60.33203125 367.999023438 70.9990234375 c 4
 389.999023438 81.666015625 406.666015625 95.9990234375 417.999023438 113.999023438 c 5
 417.999023438 399.999023438 l 6
 417.999023438 473.33203125 381.33203125 509.999023438 307.999023438 509.999023438 c 4
 284.666015625 509.999023438 263.499023438 504.33203125 244.499023438 492.999023438 c 4
 225.499023438 481.666015625 209.166015625 465.666015625 195.499023438 444.999023438 c 4
 181.83203125 424.33203125 171.165039062 399.33203125 163.498046875 369.999023438 c 4
 155.831054688 340.666015625 151.998046875 307.999023438 151.998046875 271.999023438 c 4
 151.998046875 204.666015625 164.665039062 151.666015625 189.998046875 112.999023438 c 4
 215.331054688 74.33203125 250.6640625 54.9990234375 295.997070312 54.9990234375 c 4
EndSplineSet
Fore
SplineSet
425 -10 m 1
 425 76 l 1
 421 78 l 1
 385 27 333 -10 254 -10 c 3
 187 -10 138 24 106 65 c 0
 70 110 47 177 47 256 c 3
 47 389 110 478 203 519 c 0
 235 533 271 540 310 540 c 3
 347 540 383 535 418 525 c 1
 418 740 l 5
 343 767 l 5
 343 781 l 5
 436 799 464 811 502 830 c 5
 512 830 l 5
 512 78 l 1
 591 53 l 1
 591 39 l 1
 498 21 470 9 432 -10 c 1
 425 -10 l 1
152 272 m 3
 152 158 192 55 296 55 c 0
 350 55 397 140 418 174 c 1
 418 400 l 2
 418 455 373 490 308 490 c 3
 254 490 218 480 195 445 c 0
 167 403 152 342 152 272 c 3
EndSplineSet
Validated: 1
EndChar

StartChar: f
Encoding: 102 102 15
Width: 351
Flags: HW
LayerCount: 2
Back
SplineSet
35 530 m 5
 110.999023438 529.999023438 l 5
 110.999023438 577.999023438 111.83203125 615.166015625 113.499023438 641.499023438 c 4
 115.166015625 667.83203125 119.333007812 689.665039062 126 706.998046875 c 4
 132.666992188 725.665039062 142.666992188 742.498046875 156 757.498046875 c 4
 169.333007812 772.498046875 184.666015625 785.331054688 201.999023438 795.998046875 c 4
 219.33203125 806.665039062 237.999023438 814.998046875 257.999023438 820.998046875 c 4
 277.999023438 826.998046875 298.666015625 829.998046875 319.999023438 829.998046875 c 4
 337.999023438 829.998046875 354.83203125 827.831054688 370.499023438 823.498046875 c 4
 386.166015625 819.165039062 399.833007812 813.33203125 411.5 805.999023438 c 4
 423.166992188 798.666015625 432.333984375 789.666015625 439.000976562 778.999023438 c 4
 445.66796875 768.33203125 449.000976562 756.999023438 449.000976562 744.999023438 c 4
 449.000976562 730.33203125 444.500976562 718.499023438 435.500976562 709.499023438 c 4
 426.500976562 700.499023438 414.66796875 695.999023438 400.000976562 695.999023438 c 4
 383.333984375 695.999023438 371.666992188 701.33203125 365 711.999023438 c 4
 358.333007812 722.666015625 353.666015625 734.333007812 350.999023438 747 c 4
 347.666015625 765 342.499023438 778.166992188 335.499023438 786.5 c 4
 328.499023438 794.833007812 316.999023438 799 300.999023438 799 c 4
 285.666015625 799 271.499023438 795.166992188 258.499023438 787.5 c 4
 245.499023438 779.833007812 234.999023438 767.333007812 226.999023438 750 c 4
 219.666015625 734.666992188 214.333007812 714.166992188 211 688.5 c 4
 207.666992188 662.833007812 206 628.333007812 206 585 c 6
 206 530 l 5
 335 530 l 5
 323 498 l 5
 206 498 l 5
 206 34 l 5
 312 19 l 5
 312 0 l 5
 36 0 l 5
 36 19 l 5
 111 34 l 5
 111 498 l 5
 23 498 l 5
 35 530 l 5
EndSplineSet
Fore
SplineSet
449 745 m 0
 449 716 429 696 400 696 c 3
 329 696 375 799 301 799 c 3
 207 799 206 686 206 585 c 2
 206 530 l 1
 324 530 l 1
 323 498 l 1
 206 498 l 1
 206 34 l 1
 312 19 l 1
 312 0 l 1
 36 0 l 1
 36 19 l 1
 111 34 l 1
 111 498 l 1
 23 498 l 1
 35 530 l 1
 111 530 l 1
 111 578 111 615 113 641 c 4
 118 720 150 764 202 796 c 0
 233 815 273 830 320 830 c 3
 373 830 419 812 439 779 c 0
 446 768 449 757 449 745 c 0
EndSplineSet
Validated: 1
EndChar

StartChar: g
Encoding: 103 103 16
Width: 514
Flags: HW
LayerCount: 2
Back
SplineSet
220 -260 m 4
 196 -260 169.66796875 -257.5078125 141.000976562 -252.5078125 c 4
 112.333984375 -247.5078125 87.0009765625 -238.340820312 65.0009765625 -225.0078125 c 4
 47.66796875 -214.340820312 33.66796875 -201.173828125 23.0009765625 -185.506835938 c 4
 12.333984375 -169.83984375 7.0009765625 -151.006835938 7.0009765625 -129.006835938 c 4
 7.0009765625 -102.33984375 16.16796875 -78.33984375 34.5009765625 -57.0068359375 c 4
 52.833984375 -35.673828125 85.0009765625 -15.3408203125 131.000976562 3.9921875 c 5
 85.66796875 23.9921875 63.0009765625 51.3251953125 63.0009765625 85.9921875 c 4
 63.0009765625 93.9921875 64.66796875 102.9921875 68.0009765625 112.9921875 c 4
 71.333984375 122.9921875 77.833984375 133.325195312 87.5009765625 143.9921875 c 4
 97.16796875 154.659179688 110.66796875 165.326171875 128.000976562 175.993164062 c 4
 145.333984375 186.66015625 167.666992188 196.327148438 195 204.994140625 c 5
 156.333007812 215.661132812 124.166015625 235.161132812 98.4990234375 263.494140625 c 4
 72.83203125 291.827148438 59.9990234375 326.994140625 59.9990234375 368.994140625 c 4
 59.9990234375 393.661132812 64.9990234375 416.494140625 74.9990234375 437.494140625 c 4
 84.9990234375 458.494140625 98.666015625 476.494140625 115.999023438 491.494140625 c 4
 133.33203125 506.494140625 153.83203125 518.327148438 177.499023438 526.994140625 c 4
 201.166015625 535.661132812 226.666015625 539.994140625 253.999023438 539.994140625 c 4
 276.666015625 539.994140625 297.833007812 537.161132812 317.5 531.494140625 c 4
 337.166992188 525.827148438 355 517.994140625 371 507.994140625 c 5
 375 519.994140625 380 532.327148438 386 544.994140625 c 4
 392 557.661132812 399 569.328125 407 579.995117188 c 4
 415 590.662109375 424.166992188 599.329101562 434.5 605.99609375 c 4
 444.833007812 612.663085938 456.666015625 615.99609375 469.999023438 615.99609375 c 4
 485.33203125 615.99609375 498.83203125 611.49609375 510.499023438 602.49609375 c 4
 522.166015625 593.49609375 527.999023438 581.329101562 527.999023438 565.99609375 c 4
 527.999023438 552.663085938 523.499023438 541.49609375 514.499023438 532.49609375 c 4
 505.499023438 523.49609375 494.33203125 518.99609375 480.999023438 518.99609375 c 4
 473.666015625 518.99609375 467.999023438 520.329101562 463.999023438 522.99609375 c 4
 459.999023438 525.663085938 456.499023438 528.663085938 453.499023438 531.99609375 c 4
 450.499023438 535.329101562 447.33203125 538.329101562 443.999023438 540.99609375 c 4
 440.666015625 543.663085938 435.999023438 544.99609375 429.999023438 544.99609375 c 4
 421.999023438 544.99609375 414.499023438 539.829101562 407.499023438 529.49609375 c 4
 400.499023438 519.163085938 395.33203125 507.330078125 391.999023438 493.997070312 c 5
 411.33203125 477.997070312 426.499023438 458.997070312 437.499023438 436.997070312 c 4
 448.499023438 414.997070312 453.999023438 392.330078125 453.999023438 368.997070312 c 4
 453.999023438 346.997070312 449.166015625 325.830078125 439.499023438 305.497070312 c 4
 429.83203125 285.1640625 416.165039062 266.997070312 398.498046875 250.997070312 c 4
 380.831054688 234.997070312 359.831054688 221.6640625 335.498046875 210.997070312 c 4
 311.165039062 200.330078125 284.33203125 193.997070312 254.999023438 191.997070312 c 4
 242.33203125 190.6640625 229.499023438 188.331054688 216.499023438 184.998046875 c 4
 203.499023438 181.665039062 191.83203125 177.165039062 181.499023438 171.498046875 c 4
 171.166015625 165.831054688 162.833007812 159.498046875 156.5 152.498046875 c 4
 150.166992188 145.498046875 147 137.665039062 147 128.998046875 c 4
 147 114.998046875 155 103.665039062 171 94.998046875 c 4
 187 86.3310546875 206.166992188 78.998046875 228.5 72.998046875 c 4
 250.833007812 66.998046875 274.333007812 61.998046875 299 57.998046875 c 4
 323.666992188 53.998046875 344.666992188 49.998046875 362 45.998046875 c 4
 389.333007812 39.998046875 411.333007812 31.998046875 428 21.998046875 c 4
 444.666992188 11.998046875 457.5 1.1650390625 466.5 -10.501953125 c 4
 475.5 -22.1689453125 481.5 -34.1689453125 484.5 -46.501953125 c 4
 487.5 -58.8349609375 489 -70.66796875 489 -82.0009765625 c 4
 489 -107.333984375 484 -129.333984375 474 -148.000976562 c 4
 464 -166.66796875 450.666992188 -182.66796875 434 -196.000976562 c 4
 420 -207.333984375 404.333007812 -217.000976562 387 -225.000976562 c 4
 369.666992188 -233.000976562 351.5 -239.66796875 332.5 -245.000976562 c 4
 313.5 -250.333984375 294.5 -254.166992188 275.5 -256.5 c 4
 256.5 -258.833007812 238 -260 220 -260 c 4
261.000976562 -29.0078125 m 4
 243.66796875 -25.6748046875 226.500976562 -22.0087890625 209.500976562 -18.0087890625 c 4
 192.500976562 -14.0087890625 177.333984375 -10.0087890625 164.000976562 -6.0087890625 c 5
 140.66796875 -16.67578125 122.16796875 -32.0087890625 108.500976562 -52.0087890625 c 4
 94.833984375 -72.0087890625 88.0009765625 -93.67578125 88.0009765625 -117.008789062 c 4
 88.0009765625 -135.008789062 92.0009765625 -151.17578125 100.000976562 -165.508789062 c 4
 108.000976562 -179.841796875 119.333984375 -191.674804688 134.000976562 -201.0078125 c 4
 160.66796875 -219.0078125 195.66796875 -228.0078125 239.000976562 -228.0078125 c 4
 259.000976562 -228.0078125 279.16796875 -226.0078125 299.500976562 -222.0078125 c 4
 319.833984375 -218.0078125 338.000976562 -212.0078125 354.000976562 -204.0078125 c 4
 371.333984375 -195.340820312 385.333984375 -184.0078125 396.000976562 -170.0078125 c 4
 406.66796875 -156.0078125 412.000976562 -139.340820312 412.000976562 -120.0078125 c 4
 412.000976562 -108.0078125 409.66796875 -97.6748046875 405.000976562 -89.0078125 c 4
 400.333984375 -80.3408203125 392.166992188 -72.5078125 380.5 -65.5078125 c 4
 368.833007812 -58.5078125 353.333007812 -52.1748046875 334 -46.5078125 c 4
 314.666992188 -40.8408203125 290.333984375 -35.0078125 261.000976562 -29.0078125 c 4
255.000976562 223.991210938 m 4
 273.66796875 223.991210938 289.333984375 228.662109375 302.000976562 237.995117188 c 4
 314.66796875 247.328125 324.66796875 259.161132812 332.000976562 273.494140625 c 4
 339.333984375 287.827148438 344.500976562 303.66015625 347.500976562 320.993164062 c 4
 350.500976562 338.326171875 352.000976562 354.993164062 352.000976562 370.993164062 c 4
 352.000976562 384.326171875 350.833984375 399.159179688 348.500976562 415.4921875 c 4
 346.16796875 431.825195312 341.66796875 447.158203125 335.000976562 461.491210938 c 4
 328.333984375 475.82421875 319.000976562 487.82421875 307.000976562 497.491210938 c 4
 295.000976562 507.158203125 279.333984375 511.991210938 260.000976562 511.991210938 c 4
 240.000976562 511.991210938 223.66796875 506.82421875 211.000976562 496.491210938 c 4
 198.333984375 486.158203125 188.500976562 473.158203125 181.500976562 457.491210938 c 4
 174.500976562 441.82421875 169.66796875 425.32421875 167.000976562 407.991210938 c 4
 164.333984375 390.658203125 163.000976562 374.991210938 163.000976562 360.991210938 c 4
 163.000976562 347.658203125 164.16796875 332.991210938 166.500976562 316.991210938 c 4
 168.833984375 300.991210938 173.500976562 286.158203125 180.500976562 272.491210938 c 4
 187.500976562 258.82421875 196.833984375 247.32421875 208.500976562 237.991210938 c 4
 220.16796875 228.658203125 235.66796875 223.991210938 255.000976562 223.991210938 c 4
EndSplineSet
Fore
SplineSet
255 224 m 0
 329 224 352 298 352 371 c 0
 352 425 338 472 307 497 c 0
 295 507 279 512 260 512 c 0
 185 512 163 434 163 361 c 0
 163 307 178 263 209 238 c 0
 221 229 236 224 255 224 c 0
164 -6 m 1
 124 -24 88 -63 88 -117 c 0
 88 -157 108 -184 134 -201 c 0
 161 -219 196 -228 239 -228 c 0
 307 -228 367 -209 396 -170 c 0
 407 -156 412 -139 412 -120 c 0
 412 -72 374 -59 334 -47 c 0
 287 -33 213 -21 164 -6 c 1
429 453 m 1
 444 430 454 401 454 369 c 0
 454 317 428 278 398 251 c 0
 364 220 315 192 255 192 c 0
 215 192 177 175 156 152 c 0
 150 145 147 138 147 129 c 0
 147 95 197 81 228 73 c 0
 292 56 379 51 428 22 c 0
 464 0 489 -28 489 -82 c 0
 489 -181 410 -223 332 -245 c 0
 298 -255 261 -260 220 -260 c 0
 135 -260 58 -237 23 -186 c 0
 12 -170 7 -151 7 -129 c 0
 7 -71 60 -25 109 15 c 1
 64 35 63 51 63 86 c 0
 63 140 144 224 148 225 c 1
 90 255 60 309 60 369 c 0
 60 453 114 504 177 527 c 0
 201 536 227 540 254 540 c 0
 284 540 311 535 334 526 c 1
 349 522 365 520 382 520 c 0
 412 520 449 525 510 533 c 1
 514 520 l 1
 441 484 426 470 426 460 c 0
 426 457 427 455 429 453 c 1
EndSplineSet
Validated: 1
EndChar

StartChar: j
Encoding: 106 106 17
Width: 280
Flags: HW
LayerCount: 2
Back
SplineSet
99 451 m 5
 24.99609375 477.999023438 l 5
 24.99609375 491.999023438 l 5
 184.99609375 539.999023438 l 5
 193.99609375 539.999023438 l 5
 193.99609375 154.999023438 l 6
 193.99609375 105.666015625 193.663085938 65.666015625 192.99609375 34.9990234375 c 4
 192.329101562 4.33203125 190.829101562 -21.16796875 188.49609375 -41.5009765625 c 4
 186.163085938 -61.833984375 182.830078125 -78.5009765625 178.497070312 -91.5009765625 c 4
 174.1640625 -104.500976562 168.331054688 -117.66796875 160.998046875 -131.000976562 c 4
 137.665039062 -173.000976562 109.498046875 -205.000976562 76.498046875 -227.000976562 c 4
 43.498046875 -249.000976562 6.998046875 -260.000976562 -33.001953125 -260.000976562 c 4
 -67.001953125 -260.000976562 -93.8349609375 -252.66796875 -113.501953125 -238.000976562 c 4
 -133.168945312 -223.333984375 -143.001953125 -203.333984375 -143.001953125 -178.000976562 c 4
 -143.001953125 -159.333984375 -138.168945312 -144.666992188 -128.501953125 -134 c 4
 -118.834960938 -123.333007812 -105.66796875 -118 -89.0009765625 -118 c 4
 -75.0009765625 -118 -63.66796875 -121.833007812 -55.0009765625 -129.5 c 4
 -46.333984375 -137.166992188 -39.333984375 -148.666992188 -34.0009765625 -164 c 4
 -26.66796875 -183.333007812 -19.66796875 -196.333007812 -13.0009765625 -203 c 4
 -6.333984375 -209.666992188 3.3330078125 -213 16 -213 c 4
 71.3330078125 -213 99 -158 99 -48 c 6
 99 451 l 5
81.99609375 715.999023438 m 4
 81.99609375 734.666015625 87.8291015625 749.999023438 99.49609375 761.999023438 c 4
 111.163085938 773.999023438 126.663085938 779.999023438 145.99609375 779.999023438 c 4
 165.329101562 779.999023438 180.99609375 773.999023438 192.99609375 761.999023438 c 4
 204.99609375 749.999023438 210.99609375 734.666015625 210.99609375 715.999023438 c 4
 210.99609375 696.666015625 204.99609375 680.999023438 192.99609375 668.999023438 c 4
 180.99609375 656.999023438 165.329101562 650.999023438 145.99609375 650.999023438 c 4
 126.663085938 650.999023438 111.163085938 656.999023438 99.49609375 668.999023438 c 4
 87.8291015625 680.999023438 81.99609375 696.666015625 81.99609375 715.999023438 c 4
EndSplineSet
Fore
SplineSet
194 540 m 1
 194 155 l 6
 194 -133 173 -260 -33 -260 c 4
 -93 -260 -143 -234 -143 -178 c 4
 -143 -142 -124 -118 -89 -118 c 4
 -22 -118 -58 -200 15 -200 c 7
 83 -200 101 -69 101 78 c 6
 99 451 l 2
 25 478 l 1
 25 492 l 1
 118 510 145 521 183 540 c 1
 194 540 l 1
146 651 m 3
 107 651 82 678 82 716 c 3
 82 754 108 780 146 780 c 3
 184 780 211 754 211 716 c 3
 211 678 184 651 146 651 c 3
EndSplineSet
Validated: 1
EndChar

StartChar: a
Encoding: 97 97 18
Width: 525
Flags: HW
LayerCount: 2
Back
SplineSet
169 -10 m 4
 133 -10 103.998046875 1.328125 81.998046875 23.9951171875 c 4
 59.998046875 46.662109375 48.998046875 75.9951171875 48.998046875 111.995117188 c 4
 48.998046875 133.995117188 53.8310546875 153.495117188 63.498046875 170.495117188 c 4
 73.1650390625 187.495117188 88.83203125 202.995117188 110.499023438 216.995117188 c 4
 132.166015625 230.995117188 160.499023438 243.828125 195.499023438 255.495117188 c 4
 230.499023438 267.162109375 272.999023438 278.329101562 322.999023438 288.99609375 c 5
 322.999023438 386.99609375 l 6
 322.999023438 428.99609375 316.999023438 458.663085938 304.999023438 475.99609375 c 4
 292.999023438 493.329101562 272.33203125 501.99609375 242.999023438 501.99609375 c 4
 214.33203125 501.99609375 191.665039062 495.163085938 174.998046875 481.49609375 c 4
 158.331054688 467.829101562 149.998046875 449.329101562 149.998046875 425.99609375 c 4
 149.998046875 420.663085938 150.331054688 414.830078125 150.998046875 408.497070312 c 4
 151.665039062 402.1640625 151.998046875 396.331054688 151.998046875 390.998046875 c 4
 151.998046875 373.665039062 147.165039062 359.665039062 137.498046875 348.998046875 c 4
 127.831054688 338.331054688 115.331054688 332.998046875 99.998046875 332.998046875 c 4
 86.6650390625 332.998046875 75.6650390625 337.331054688 66.998046875 345.998046875 c 4
 58.3310546875 354.665039062 53.998046875 366.33203125 53.998046875 380.999023438 c 4
 53.998046875 402.999023438 63.8310546875 425.666015625 83.498046875 448.999023438 c 4
 103.165039062 472.33203125 129.33203125 492.33203125 161.999023438 508.999023438 c 4
 201.999023438 529.666015625 244.33203125 539.999023438 288.999023438 539.999023438 c 4
 317.666015625 539.999023438 341.999023438 535.499023438 361.999023438 526.499023438 c 4
 381.999023438 517.499023438 396.33203125 504.33203125 404.999023438 486.999023438 c 4
 407.666015625 480.999023438 409.833007812 474.83203125 411.5 468.499023438 c 4
 413.166992188 462.166015625 414.5 454.166015625 415.5 444.499023438 c 4
 416.5 434.83203125 417.166992188 422.83203125 417.5 408.499023438 c 4
 417.833007812 394.166015625 418 376.666015625 418 355.999023438 c 6
 418 126.999023438 l 6
 418 93.666015625 420.5 71.3330078125 425.5 60 c 4
 430.5 48.6669921875 440.333007812 43 455 43 c 4
 464.333007812 43 472.666015625 45.1669921875 479.999023438 49.5 c 4
 487.33203125 53.8330078125 495.33203125 61.3330078125 503.999023438 72 c 5
 520.999023438 57 l 5
 505.666015625 33 489.833007812 15.8330078125 473.5 5.5 c 4
 457.166992188 -4.8330078125 438.333984375 -10 417.000976562 -10 c 4
 364.333984375 -10 334.666992188 20 328 80 c 5
 325 82 l 5
 305.666992188 53.3330078125 282.166992188 30.8330078125 254.5 14.5 c 4
 226.833007812 -1.8330078125 198.333007812 -10 169 -10 c 4
212.998046875 48.9951171875 m 4
 234.331054688 48.9951171875 254.666015625 54.826171875 273.999023438 66.4931640625 c 4
 293.33203125 78.16015625 309.665039062 94.66015625 322.998046875 115.993164062 c 5
 322.998046875 259.993164062 l 5
 287.665039062 252.66015625 258.165039062 245.327148438 234.498046875 237.994140625 c 4
 210.831054688 230.661132812 191.831054688 221.994140625 177.498046875 211.994140625 c 4
 163.165039062 201.994140625 152.998046875 190.661132812 146.998046875 177.994140625 c 4
 140.998046875 165.327148438 137.998046875 150.327148438 137.998046875 132.994140625 c 4
 137.998046875 105.661132812 144.498046875 84.828125 157.498046875 70.4951171875 c 4
 170.498046875 56.162109375 188.998046875 48.9951171875 212.998046875 48.9951171875 c 4
EndSplineSet
Fore
SplineSet
325 82 m 1
 293 35 239 -10 169 -10 c 3
 97 -10 49 40 49 112 c 3
 49 165 74 194 110 217 c 0
 165 253 240 271 323 289 c 1
 323 387 l 2
 323 455 288 481 250 481 c 0
 203 481 152 442 152 391 c 3
 152 358 132 333 100 333 c 0
 72 333 54 353 54 381 c 0
 54 403 63 426 83 449 c 0
 124 497 205 540 289 540 c 3
 364 540 409 512 416 444 c 0
 418 428 418 412 418 394 c 0
 418 382 418 370 418 356 c 2
 418 127 l 2
 418 94 421 71 426 60 c 0
 431 49 440 43 455 43 c 0
 480 43 490 55 504 72 c 1
 521 57 l 1
 496 18 471 -10 417 -10 c 3
 364 -10 335 20 328 80 c 1
 325 82 l 1
138 133 m 3
 138 81 163 49 213 49 c 3
 264 49 301 102 323 137 c 1
 323 234 l 1
 253 220 138 202 138 133 c 3
EndSplineSet
Validated: 1
EndChar

StartChar: A
Encoding: 65 65 19
Width: 744
Flags: HW
LayerCount: 2
Back
SplineSet
461 283 m 5
 219.000976562 282.998046875 l 5
 165.000976562 131.998046875 l 6
 157.66796875 111.331054688 154.000976562 95.6640625 154.000976562 84.9970703125 c 4
 154.000976562 66.9970703125 162.66796875 53.4970703125 180.000976562 44.4970703125 c 4
 197.333984375 35.4970703125 223.000976562 28.330078125 257.000976562 22.9970703125 c 5
 257.000976562 -0.0029296875 l 5
 -23.9990234375 -0.0029296875 l 5
 -23.9990234375 22.9970703125 l 5
 2.66796875 26.9970703125 24.0009765625 31.6640625 40.0009765625 36.9970703125 c 4
 56.0009765625 42.330078125 69.0009765625 49.330078125 79.0009765625 57.9970703125 c 4
 89.0009765625 66.6640625 97.0009765625 77.1640625 103.000976562 89.4970703125 c 4
 109.000976562 101.830078125 115.000976562 116.663085938 121.000976562 133.99609375 c 6
 315.000976562 676.99609375 l 5
 289.000976562 735.99609375 l 5
 387.000976562 789.99609375 l 5
 651.000976562 83.99609375 l 6
 655.000976562 72.6630859375 659.333984375 63.330078125 664.000976562 55.9970703125 c 4
 668.66796875 48.6640625 674.66796875 42.6640625 682.000976562 37.9970703125 c 4
 689.333984375 33.330078125 698.666992188 29.9970703125 710 27.9970703125 c 4
 721.333007812 25.9970703125 735.666015625 24.330078125 752.999023438 22.9970703125 c 5
 752.999023438 -0.0029296875 l 5
 434.999023438 -0.0029296875 l 5
 434.999023438 22.9970703125 l 5
 457.666015625 23.6640625 475.833007812 24.8310546875 489.5 26.498046875 c 4
 503.166992188 28.1650390625 513.666992188 30.33203125 521 32.9990234375 c 4
 528.333007812 35.666015625 533 38.8330078125 535 42.5 c 4
 537 46.1669921875 538 50.6669921875 538 56 c 4
 538 60.6669921875 537.333007812 66.1669921875 536 72.5 c 4
 534.666992188 78.8330078125 531.666992188 88 527 100 c 6
 461 283 l 5
337.000976562 613.998046875 m 5
 233.000976562 322.998046875 l 5
 446.000976562 322.998046875 l 5
 341.000976562 613.998046875 l 5
 337.000976562 613.998046875 l 5
EndSplineSet
Fore
SplineSet
461 283 m 1
 243 283 l 1
 189 132 l 2
 182 111 178 96 178 85 c 3
 178 49 218 29 257 23 c 1
 257 -0 l 1
 -24 -0 l 1
 -24 23 l 1
 38 32 81 43 103 89 c 0
 109 101 115 117 121 134 c 2
 353 784 l 1
 387 790 l 1
 651 84 l 2
 668 37 688 27 753 23 c 1
 753 -0 l 1
 435 -0 l 1
 435 23 l 1
 471 24 498 25 521 33 c 0
 533 37 538 42 538 56 c 0
 538 74 534 82 527 100 c 2
 461 283 l 1
349 579 m 1
 266 348 l 1
 437 348 l 1
 353 579 l 1
 349 579 l 1
EndSplineSet
Validated: 1
EndChar

StartChar: B
Encoding: 66 66 20
Width: 699
Flags: HW
LayerCount: 2
Back
SplineSet
345 770 m 6
 391 770 429.166992188 766.665039062 459.5 759.998046875 c 4
 489.833007812 753.331054688 515.333007812 742.998046875 536 728.998046875 c 4
 559.333007812 712.331054688 577.666015625 691.331054688 590.999023438 665.998046875 c 4
 604.33203125 640.665039062 610.999023438 612.998046875 610.999023438 582.998046875 c 4
 610.999023438 538.998046875 596.83203125 502.331054688 568.499023438 472.998046875 c 4
 540.166015625 443.665039062 499.333007812 423.33203125 446 411.999023438 c 5
 446 407.999023438 l 5
 476 404.666015625 503.166992188 397.333007812 527.5 386 c 4
 551.833007812 374.666992188 572.833007812 360 590.5 342 c 4
 608.166992188 324 621.666992188 303.333007812 631 280 c 4
 640.333007812 256.666992188 645 231.333984375 645 204.000976562 c 4
 645 173.333984375 639.166992188 144.666992188 627.5 118 c 4
 615.833007812 91.3330078125 599.333007812 69.3330078125 578 52 c 4
 554.666992188 33.3330078125 526.5 20 493.5 12 c 4
 460.5 4 416.666992188 0 362 0 c 6
 49 0 l 5
 49 23 l 5
 134 42 l 5
 134 728 l 5
 49 747 l 5
 49 770 l 5
 345 770 l 6
239 428.998046875 m 5
 300.999023438 429.000976562 l 6
 320.33203125 429.000976562 336.33203125 429.16796875 348.999023438 429.500976562 c 4
 361.666015625 429.833984375 373.666015625 430.666992188 384.999023438 432 c 4
 421.666015625 436 449.833007812 451.166992188 469.5 477.5 c 4
 489.166992188 503.833007812 499 540 499 586 c 4
 499 609.333007812 496.166992188 629.166015625 490.5 645.499023438 c 4
 484.833007812 661.83203125 475.333007812 676.665039062 462 689.998046875 c 4
 447.333007812 705.331054688 430 715.831054688 410 721.498046875 c 4
 390 727.165039062 361.666992188 729.998046875 325 729.998046875 c 6
 239 729.998046875 l 5
 239 428.998046875 l 5
238.999023438 389.000976562 m 5
 238.999023438 98 l 6
 238.999023438 74.6669921875 245.166015625 58.833984375 257.499023438 50.5009765625 c 4
 269.83203125 42.16796875 292.999023438 38.0009765625 326.999023438 38.0009765625 c 4
 396.33203125 38.0009765625 447.33203125 52.0009765625 479.999023438 80.0009765625 c 4
 512.666015625 108.000976562 528.999023438 152.333984375 528.999023438 213.000976562 c 4
 528.999023438 273.66796875 512.499023438 318.16796875 479.499023438 346.500976562 c 4
 446.499023438 374.833984375 394.666015625 389.000976562 323.999023438 389.000976562 c 6
 238.999023438 389.000976562 l 5
EndSplineSet
Fore
SplineSet
611 583 m 7
 611 482 537 431 446 412 c 5
 446 408 l 5
 536 398 602 351 631 280 c 4
 640 257 645 231 645 204 c 7
 645 97 582 33 494 12 c 4
 461 4 417 0 362 0 c 6
 49 0 l 5
 49 23 l 5
 134 42 l 5
 134 728 l 5
 49 747 l 5
 49 770 l 5
 345 770 l 6
 470 770 549 746 591 666 c 4
 604 641 611 613 611 583 c 7
239 445 m 5
 301 445 l 6
 431 445 499 452 499 586 c 7
 499 684.026740588 425.220621886 711 325 711 c 6
 239 711 l 5
 239 445 l 5
529 213 m 7
 529 342 457 376 324 376 c 6
 239 376 l 5
 239 129 l 6
 239 76 268 69 327 69 c 7
 459 69 529 85 529 213 c 7
EndSplineSet
EndChar

StartChar: C
Encoding: 67 67 21
Width: 774
Flags: HW
LayerCount: 2
Back
SplineSet
611 583 m 7
 611 482 537 431 446 412 c 5
 446 408 l 5
 536 398 602 351 631 280 c 4
 640 257 645 231 645 204 c 7
 645 97 582 33 494 12 c 4
 461 4 417 0 362 0 c 6
 49 0 l 5
 49 23 l 5
 134 42 l 5
 134 728 l 5
 49 747 l 5
 49 770 l 5
 345 770 l 6
 470 770 549 746 591 666 c 4
 604 641 611 613 611 583 c 7
239 445 m 5
 301 445 l 6
 431 445 499 452 499 586 c 7
 499 684.026740588 425.220621886 711 325 711 c 6
 239 711 l 5
 239 445 l 5
529 213 m 7
 529 342 457 376 324 376 c 6
 239 376 l 5
 239 129 l 6
 239 76 268 69 327 69 c 7
 459 69 529 85 529 213 c 7
EndSplineSet
Fore
SplineSet
56 380 m 3
 56 610.694790062 193.233041863 780 422 780 c 3
 507.543341556 780 582.487180221 754.129892356 637 719 c 1
 641 719 l 1
 690 770 l 1
 708 770 l 1
 708 540 l 1
 678 540 l 1
 641.067554502 650.797336493 580.452148438 721 439 721 c 3
 253.46484375 721 182 585.372005628 182 387.000976562 c 3
 182 189.30125865 254.340820312 53.5830078125 439 53.5830078125 c 3
 585.525390625 53.5830078125 657.181413258 134.963104417 681.000976562 262 c 1
 708.000976562 262 l 1
 708.000976562 0 l 1
 684.000976562 0 l 1
 638.000976562 66 l 1
 575.33458745 19.579885864 515.987285531 -10 418.000976562 -10 c 3
 190.926418739 -10 56 151.783955875 56 380 c 3
EndSplineSet
EndChar

StartChar: D
Encoding: 68 68 22
Width: 810
Flags: HW
LayerCount: 2
Fore
SplineSet
49 0 m 5
 49.0009765625 23 l 5
 134.000976562 42 l 5
 134.000976562 728 l 5
 49.0009765625 747 l 5
 49.0009765625 770 l 5
 298.000976562 770 l 6
 338.000976562 770 373.500976562 768.666992188 404.500976562 766 c 4
 435.500976562 763.333007812 463.500976562 759.166015625 488.500976562 753.499023438 c 4
 513.500976562 747.83203125 536.000976562 740.33203125 556.000976562 730.999023438 c 4
 576.000976562 721.666015625 594.66796875 710.333007812 612.000976562 697 c 4
 657.333984375 662.333007812 692.166992188 617.833007812 716.5 563.5 c 4
 740.833007812 509.166992188 753 449 753 383 c 4
 753 315 740 252.5 714 195.5 c 4
 688 138.5 651.666992188 93 605 59 c 4
 590.333007812 48.3330078125 575.333007812 39.3330078125 560 32 c 4
 544.666992188 24.6669921875 528.166992188 18.6669921875 510.5 14 c 4
 492.833007812 9.3330078125 473.5 5.8330078125 452.5 3.5 c 4
 431.5 1.1669921875 408.666992188 0 384 0 c 6
 49 0 l 5
343.000976562 38 m 4
 392.333984375 38 432.5 44.1669921875 463.5 56.5 c 4
 494.5 68.8330078125 522 89.666015625 546 118.999023438 c 4
 572.666992188 152.33203125 593 192.499023438 607 239.499023438 c 4
 621 286.499023438 628 338.33203125 628 394.999023438 c 4
 628 509.666015625 599.666992188 596.999023438 543 656.999023438 c 4
 517.666992188 683.666015625 487.833984375 702.499023438 453.500976562 713.499023438 c 4
 419.16796875 724.499023438 374.000976562 729.999023438 318.000976562 729.999023438 c 6
 239.000976562 729.999023438 l 5
 239.000976562 97.9990234375 l 6
 239.000976562 74.666015625 246.500976562 58.8330078125 261.500976562 50.5 c 4
 276.500976562 42.1669921875 303.66796875 38 343.000976562 38 c 4
EndSplineSet
EndChar

StartChar: H
Encoding: 72 72 24
Width: 857
Flags: HW
LayerCount: 2
Back
SplineSet
611 583 m 3
 611 482 537 431 446 412 c 1
 446 408 l 1
 536 398 602 351 631 280 c 0
 640 257 645 231 645 204 c 3
 645 97 582 33 494 12 c 0
 461 4 417 0 362 0 c 2
 49 0 l 1
 49 23 l 1
 134 42 l 1
 134 728 l 1
 49 747 l 1
 49 770 l 1
 345 770 l 2
 470 770 549 746 591 666 c 0
 604 641 611 613 611 583 c 3
239 445 m 1
 301 445 l 2
 431 445 499 452 499 586 c 3
 499 684.026740588 425.220621886 711 325 711 c 2
 239 711 l 1
 239 445 l 1
529 213 m 3
 529 342 457 376 324 376 c 2
 239 376 l 1
 239 129 l 2
 239 76 268 69 327 69 c 3
 459 69 529 85 529 213 c 3
EndSplineSet
Fore
SplineSet
618 376 m 1
 240 376 l 1
 240 42 l 1
 329 23 l 1
 329 0 l 1
 45 0 l 1
 45 23 l 1
 135 42 l 1
 135 728 l 1
 45 747 l 1
 45 770 l 1
 329 770 l 1
 329 747 l 1
 240 728 l 1
 240 445 l 1
 618 445 l 1
 618 728 l 1
 528 747 l 1
 528 770 l 1
 812 770 l 1
 812 745 l 1
 723 728 l 1
 723 42 l 1
 812 21 l 1
 812 0 l 1
 528 0 l 1
 528 23 l 1
 618 42 l 1
 618 376 l 1
EndSplineSet
EndChar

StartChar: I
Encoding: 73 73 25
Width: 374
Flags: HW
LayerCount: 2
Fore
SplineSet
135 728 m 1
 45 747 l 1
 45 770 l 1
 329 770 l 1
 329 747 l 1
 240 728 l 1
 240 42 l 1
 329 23 l 1
 329 0 l 1
 45 0 l 1
 45 23 l 1
 135 42 l 1
 135 728 l 1
EndSplineSet
EndChar

StartChar: J
Encoding: 74 74 26
Width: 280
Flags: HW
LayerCount: 2
Back
SplineSet
233 155 m 2
 233 105.666992188 232.666015625 65.6669921875 231.999023438 35 c 0
 231.33203125 4.3330078125 229.665039062 -21.1669921875 226.998046875 -41.5 c 0
 224.331054688 -61.8330078125 220.831054688 -78.5 216.498046875 -91.5 c 0
 212.165039062 -104.5 206.33203125 -117.666992188 198.999023438 -131 c 0
 175.666015625 -173 145.499023438 -205 108.499023438 -227 c 0
 71.4990234375 -249 32.33203125 -260 -9.0009765625 -260 c 0
 -46.333984375 -260 -75.6669921875 -252.333007812 -97 -237 c 0
 -118.333007812 -221.666992188 -129 -200.333984375 -129 -173.000976562 c 0
 -129 -153.000976562 -123.666992188 -137.16796875 -113 -125.500976562 c 0
 -102.333007812 -113.833984375 -88 -108.000976562 -70 -108.000976562 c 0
 -56 -108.000976562 -44.6669921875 -111.833984375 -36 -119.500976562 c 0
 -27.3330078125 -127.16796875 -20.3330078125 -138.66796875 -15 -154.000976562 c 0
 -7.6669921875 -173.333984375 1 -187.166992188 11 -195.5 c 0
 21 -203.833007812 32.6669921875 -208 46 -208 c 0
 69.3330078125 -208 88.8330078125 -194.833007812 104.5 -168.5 c 0
 120.166992188 -142.166992188 128 -102 128 -48 c 2
 128 728 l 1
 38 747 l 1
 38 770 l 1
 322 770 l 1
 322 747 l 1
 233 728 l 1
 233 155 l 2
EndSplineSet
Fore
SplineSet
128 728 m 1
 38 747 l 1
 38 770 l 1
 322 770 l 1
 322 747 l 1
 233 728 l 1
 232 166 l 2
 231.482206406 -125 178 -260 -5 -260 c 3
 -90 -260 -129 -225 -129 -169 c 3
 -129 -132.953125 -105 -108 -70 -108 c 0
 -3 -108 -30 -186 43 -186 c 3
 111 -186 129 -55 129 92 c 2
 128 728 l 1
EndSplineSet
EndChar

StartChar: O
Encoding: 79 79 27
Width: 836
Flags: HWO
LayerCount: 2
Back
SplineSet
611 583 m 7
 611 482 537 431 446 412 c 5
 446 408 l 5
 536 398 602 351 631 280 c 4
 640 257 645 231 645 204 c 7
 645 97 582 33 494 12 c 4
 461 4 417 0 362 0 c 6
 49 0 l 5
 49 23 l 5
 134 42 l 5
 134 728 l 5
 49 747 l 5
 49 770 l 5
 345 770 l 6
 470 770 549 746 591 666 c 4
 604 641 611 613 611 583 c 7
239 445 m 5
 301 445 l 6
 431 445 499 452 499 586 c 7
 499 684.026740588 425.220621886 711 325 711 c 6
 239 711 l 5
 239 445 l 5
529 213 m 7
 529 342 457 376 324 376 c 6
 239 376 l 5
 239 129 l 6
 239 76 268 69 327 69 c 7
 459 69 529 85 529 213 c 7
EndSplineSet
Fore
SplineSet
418 780 m 3
 639.761970009 780 781 607.674877053 781 385.000976562 c 3
 781 162.170576718 639.637913677 -9.998046875 418 -9.998046875 c 3
 196.238029991 -9.998046875 55 162.327076072 55 385.000976562 c 3
 55 607.831376407 196.362086323 780 418 780 c 3
181 386 m 3
 181 203.460633538 240.6875 53 418.5 53 c 3
 596.62890625 53 654.999023438 205.01924047 654.999023438 387.999023438 c 3
 654.999023438 570.140153776 595.866210938 711 418.5 711 c 3
 239.870117188 711 181 569.032167275 181 386 c 3
EndSplineSet
EndChar
